<?xml version="1.0" encoding="utf-8"?>
<!-- Generator: Adobe Illustrator 16.0.0, SVG Export Plug-In . SVG Version: 6.00 Build 0)  -->
<!DOCTYPE svg PUBLIC "-//W3C//DTD SVG 1.1//EN" "http://www.w3.org/Graphics/SVG/1.1/DTD/svg11.dtd">
<svg version="1.1" id="Capa_1" xmlns="http://www.w3.org/2000/svg" xmlns:xlink="http://www.w3.org/1999/xlink" x="0px" y="0px"
	 width="254.696px" height="150.136px" viewBox="735.369 592.586 254.696 150.136"
	 enable-background="new 735.369 592.586 254.696 150.136" xml:space="preserve">
<path fill="#FFFFFF" d="M942.169,651.352c-0.048,0-0.072,0-0.121,0c-1.869-29.542-26.435-52.919-56.438-52.919
	c-27.697,0-50.734,19.905-55.613,46.171c-0.631-0.024-1.287-0.049-1.918-0.049c-20.633,0-38.038,13.667-43.719,32.431
	c-0.874-0.072-1.771-0.121-2.67-0.121c-16.288,0-29.518,13.205-29.518,29.518c0,16.313,13.205,29.519,29.493,29.519
	c0.243,0,160.48,0,160.48,0c23.352,0,42.262-18.935,42.262-42.263C984.407,670.311,965.521,651.352,942.169,651.352z"/>
</svg>
