<?xml version="1.0" encoding="utf-8"?>
<!-- Generator: Adobe Illustrator 16.0.0, SVG Export Plug-In . SVG Version: 6.00 Build 0)  -->
<!DOCTYPE svg PUBLIC "-//W3C//DTD SVG 1.1//EN" "http://www.w3.org/Graphics/SVG/1.1/DTD/svg11.dtd">
<svg version="1.1" id="Layer_1" xmlns="http://www.w3.org/2000/svg" xmlns:xlink="http://www.w3.org/1999/xlink" x="0px" y="0px"
	 width="583px" height="227px" viewBox="0 0 583 227" enable-background="new 0 0 583 227" xml:space="preserve">
<path fill="#FFFFFF" d="M302.6,89.1c-0.1,0-0.1,0-0.2,0C299.5,42.8,261,6.2,214.1,6.2c-43.3,0-79.4,31.1-87,72.3c-1,0-2-0.1-3-0.1
	c-32.3,0-59.5,21.4-68.4,50.8c-1.4-0.1-2.8-0.2-4.2-0.2C26,129,5.3,149.6,5.3,175.2s20.7,46.2,46.2,46.2c0.4,0,251.1,0,251.1,0
	c36.5,0,66.1-29.6,66.1-66.1C368.7,118.7,339.1,89.1,302.6,89.1z"/>
<path fill="#FFFFFF" d="M512.6,89.1c-0.1,0-0.1,0-0.2,0c-2.9-46.2-41.4-82.8-88.3-82.8c-43.3,0-79.4,31.1-87,72.3c-1,0-2-0.1-3-0.1
	c-32.3,0-59.5,21.4-68.4,50.7c-1.4-0.1-2.8-0.2-4.2-0.2c-25.5,0-46.2,20.7-46.2,46.2c0,25.5,20.7,46.2,46.2,46.2
	c0.4,0,251.1,0,251.1,0c36.5,0,66.1-29.6,66.1-66.1C578.7,118.7,549.2,89.1,512.6,89.1z"/>
</svg>
