<?xml version="1.0" encoding="utf-8"?>
<!-- Generator: Adobe Illustrator 16.0.0, SVG Export Plug-In . SVG Version: 6.00 Build 0)  -->
<!DOCTYPE svg PUBLIC "-//W3C//DTD SVG 1.1//EN" "http://www.w3.org/Graphics/SVG/1.1/DTD/svg11.dtd">
<svg version="1.1" id="Layer_1" xmlns="http://www.w3.org/2000/svg" xmlns:xlink="http://www.w3.org/1999/xlink" x="0px" y="0px"
	 width="309.5px" height="52.656px" viewBox="0 167.75 309.5 52.656" enable-background="new 0 167.75 309.5 52.656"
	 xml:space="preserve">
<polygon fill="#3C4833" points="155.563,179.969 149.063,167.75 142.813,179.969 144.531,179.969 140.938,187.406 137.625,182.219 
	138.813,181.438 133.75,173.594 128.844,181.563 130.031,181.688 127.781,185.156 124.438,181.438 118.594,188.469 116.219,185.688 
	117.813,185.406 111.563,177.438 105.156,185.406 106.906,185.406 104.375,188.469 96,176.375 89.75,184.5 86.563,179.031 
	82.844,186.5 83.75,187.156 82.031,189.156 78.563,183.813 80.188,183.688 74.469,175.313 67.938,182.75 69.125,183.438 
	67.281,186.219 61.281,179.188 57.688,182.625 55.313,179.844 56.625,178.438 51.188,170.781 48.125,176.25 43.063,169.469 
	38.031,177.188 38.688,177.719 36.563,180.781 33.5,177.188 27.531,184.5 25.781,181.563 26.594,181.031 20.469,173.594 
	14.344,181.688 15.688,181.844 13.688,184.094 5.563,172.25 -0.406,180.375 -2.656,214.938 158.75,220.406 "/>
<polygon fill="#3C4833" points="154.5,179.969 161,167.75 167.25,179.969 165.531,179.969 169.125,187.406 172.438,182.219 
	171.25,181.438 176.313,173.594 181.219,181.563 180.031,181.688 182.281,185.156 185.594,181.438 191.469,188.469 193.844,185.688 
	192.25,185.406 198.5,177.438 204.875,185.406 203.156,185.406 205.688,188.469 214.063,176.375 220.313,184.5 223.5,179.031 
	227.219,186.5 226.313,187.156 228.031,189.156 231.469,183.813 229.875,183.688 235.594,175.313 242.125,182.75 240.938,183.438 
	242.781,186.219 248.781,179.188 252.375,182.625 254.75,179.844 253.438,178.438 258.875,170.781 261.938,176.25 267,169.469 
	272.031,177.188 271.375,177.719 273.5,180.781 276.563,177.188 282.531,184.5 284.281,181.563 283.469,181.031 289.594,173.594 
	295.719,181.688 294.375,181.844 296.375,184.094 304.5,172.25 310.469,180.375 312.719,214.938 151.313,220.406 "/>
</svg>
