<?xml version="1.0" encoding="utf-8"?>
<!-- Generator: Adobe Illustrator 16.0.0, SVG Export Plug-In . SVG Version: 6.00 Build 0)  -->
<!DOCTYPE svg PUBLIC "-//W3C//DTD SVG 1.1//EN" "http://www.w3.org/Graphics/SVG/1.1/DTD/svg11.dtd">
<svg version="1.1" id="Layer_1" xmlns="http://www.w3.org/2000/svg" xmlns:xlink="http://www.w3.org/1999/xlink" x="0px" y="0px"
	viewBox="0 0 1920 184.4" enable-background="new 0 0 1920 184.4" xml:space="preserve">
<polygon fill="#3C4833" points="214.1,47.3 193.3,8.2 173.3,47.3 178.8,47.3 167.3,71.1 156.7,54.5 160.5,52 144.3,26.9 128.6,52.4 
	132.4,52.8 125.2,63.9 114.5,52 95.8,74.5 88.2,65.6 93.3,64.7 73.3,39.2 52.8,64.7 58.4,64.7 50.3,74.5 23.5,35.8 3.5,61.8 
	-6.7,44.3 -18.6,68.2 -15.7,70.3 -21.2,76.7 -32.3,59.6 -27.1,59.2 -45.4,32.4 -66.3,56.2 -62.5,58.4 -68.4,67.3 -87.6,44.8 
	-99.1,55.8 -106.7,46.9 -102.5,42.4 -119.9,17.9 -129.7,35.4 -145.9,13.7 -162,38.4 -159.9,40.1 -166.7,49.9 -176.5,38.4 
	-195.6,61.8 -201.2,52.4 -198.6,50.7 -218.2,26.9 -237.8,52.8 -233.5,53.3 -239.9,60.5 -265.9,22.6 -285,48.6 -292.2,159.2 
	224.3,176.7 "/>
<polygon fill="#3C4833" points="210.7,47.3 231.5,8.2 251.5,47.3 246,47.3 257.5,71.1 268.1,54.5 264.3,52 280.5,26.9 296.2,52.4 
	292.4,52.8 299.6,63.9 310.2,52 329,74.5 336.6,65.6 331.5,64.7 351.5,39.2 371.9,64.7 366.4,64.7 374.5,74.5 401.3,35.8 
	421.3,61.8 431.5,44.3 443.4,68.2 440.5,70.3 446,76.7 457,59.6 451.9,59.2 470.2,32.4 491.1,56.2 487.3,58.4 493.2,67.3 
	512.4,44.8 523.9,55.8 531.5,46.9 527.3,42.4 544.7,17.9 554.5,35.4 570.7,13.7 586.8,38.4 584.7,40.1 591.5,49.9 601.3,38.4 
	620.4,61.8 626,52.4 623.4,50.7 643,26.9 662.6,52.8 658.3,53.3 664.7,60.5 690.7,22.6 709.8,48.6 717,159.2 200.5,176.7 "/>
<polygon fill="#3C4833" points="1209,47.3 1188.1,8.2 1168.1,47.3 1173.7,47.3 1162.2,71.1 1151.5,54.5 1155.4,52 1139.2,26.9 
	1123.4,52.4 1127.3,52.8 1120,63.9 1109.4,52 1090.7,74.5 1083,65.6 1088.1,64.7 1068.1,39.2 1047.7,64.7 1053.2,64.7 1045.2,74.5 
	1018.3,35.8 998.3,61.8 988.1,44.3 976.2,68.2 979.2,70.3 973.7,76.7 962.6,59.6 967.7,59.2 949.4,32.4 928.6,56.2 932.4,58.4 
	926.4,67.3 907.3,44.8 895.8,55.8 888.1,46.9 892.4,42.4 874.9,17.9 865.2,35.4 849,13.7 832.8,38.4 834.9,40.1 828.1,49.9 
	818.4,38.4 799.2,61.8 793.7,52.4 796.2,50.7 776.7,26.9 757.1,52.8 761.3,53.3 755,60.5 729,22.6 709.8,48.6 702.6,159.2 
	1219.2,176.7 "/>
<polygon fill="#3C4833" points="1202,47.3 1222.9,8.2 1242.9,47.3 1237.4,47.3 1248.9,71.1 1259.5,54.5 1255.7,52 1271.8,26.9 
	1287.6,52.4 1283.7,52.8 1291,63.9 1301.6,52 1320.3,74.5 1328,65.6 1322.9,64.7 1342.9,39.2 1363.3,64.7 1357.8,64.7 1365.9,74.5 
	1392.7,35.8 1412.7,61.8 1422.9,44.3 1434.8,68.2 1431.8,70.3 1437.4,76.7 1448.4,59.6 1443.3,59.2 1461.6,32.4 1482.5,56.2 
	1478.6,58.4 1484.6,67.3 1503.7,44.8 1515.2,55.8 1522.9,46.9 1518.6,42.4 1536.1,17.9 1545.9,35.4 1562,13.7 1578.2,38.4 
	1576.1,40.1 1582.9,49.9 1592.7,38.4 1611.8,61.8 1617.3,52.4 1614.8,50.7 1634.4,26.9 1653.9,52.8 1649.7,53.3 1656.1,60.5 
	1682,22.6 1701.2,48.6 1708.4,159.2 1191.8,176.7 "/>
<polygon fill="#3C4833" points="2200.3,47.3 2179.5,8.2 2159.5,47.3 2165,47.3 2153.5,71.1 2142.9,54.5 2146.7,52 2130.6,26.9 
	2114.8,52.4 2118.6,52.8 2111.4,63.9 2100.8,52 2082,74.5 2074.4,65.6 2079.5,64.7 2059.5,39.2 2039.1,64.7 2044.6,64.7 
	2036.5,74.5 2009.7,35.8 1989.7,61.8 1979.5,44.3 1967.6,68.2 1970.6,70.3 1965,76.7 1954,59.6 1959.1,59.2 1940.8,32.4 
	1919.9,56.2 1923.8,58.4 1917.8,67.3 1898.7,44.8 1887.2,55.8 1879.5,46.9 1883.8,42.4 1866.3,17.9 1856.5,35.4 1840.4,13.7 
	1824.2,38.4 1826.3,40.1 1819.5,49.9 1809.7,38.4 1790.6,61.8 1785,52.4 1787.6,50.7 1768,26.9 1748.4,52.8 1752.7,53.3 
	1746.3,60.5 1720.4,22.6 1701.2,48.6 1694,159.2 2210.6,176.7 "/>
</svg>
