<?xml version="1.0" encoding="utf-8"?>
<!-- Generator: Adobe Illustrator 16.0.0, SVG Export Plug-In . SVG Version: 6.00 Build 0)  -->
<!DOCTYPE svg PUBLIC "-//W3C//DTD SVG 1.1//EN" "http://www.w3.org/Graphics/SVG/1.1/DTD/svg11.dtd">
<svg version="1.1" id="Layer_1" xmlns="http://www.w3.org/2000/svg" xmlns:xlink="http://www.w3.org/1999/xlink" x="0px" y="0px"
	 width="244.2px" height="163.6px" viewBox="0 0 244.2 163.6" enable-background="new 0 0 244.2 163.6" xml:space="preserve">
<circle fill-rule="evenodd" clip-rule="evenodd" fill="#B83B2A" cx="173" cy="106.6" r="39.5"/>
<polyline fill-rule="evenodd" clip-rule="evenodd" fill="#EB8C3E" points="137.4,123.7 199,136.4 194.4,139.9 139.9,128.2 "/>
<path fill-rule="evenodd" clip-rule="evenodd" fill="#5B0F05" d="M139.9,128.2l54.5,11.7c0,0-13.9,8.5-26.2,6s-15.4-2.7-20.7-8.6"/>
<polyline fill-rule="evenodd" clip-rule="evenodd" fill="#5B0F05" points="154.4,142.5 152.2,149.7 157.2,152.5 159.8,144.1 "/>
<polyline fill-rule="evenodd" clip-rule="evenodd" fill="#5B0F05" points="166.4,143.5 164.2,152.2 169.2,155.7 171.8,145.5 "/>
<ellipse fill-rule="evenodd" clip-rule="evenodd" fill="#EB8C3E" cx="165.4" cy="63.4" rx="42.4" ry="44.4"/>
<circle fill-rule="evenodd" clip-rule="evenodd" fill="#D8AD8D" cx="164.4" cy="70.8" r="32.9"/>
<path fill-rule="evenodd" clip-rule="evenodd" fill="#FCF6EF" d="M146.1,45.1c-0.5-0.6-1-1.3-1.5-1.9c-0.4-3,2.4-1.8,3.6-2.6
	c0.3,0.3,0.5,0.3,0.7,0c11.2-4,22.2-4.1,32.9,1.6c1.4,0.9,2.9,1.8,4.3,2.6c-3.9,6.2-10.1,4.6-15.2,3.3c-4.9-1.2-9.1-2.7-13.4,1.2
	c-0.9,0.8-2.7,0.7-4.1,0.9c-0.1-1,3-1.7,0.3-2.8C151.3,46.5,148.7,45.9,146.1,45.1z"/>
<circle fill-rule="evenodd" clip-rule="evenodd" fill="#AA4E44" cx="171" cy="13.3" r="7.3"/>
<circle fill-rule="evenodd" clip-rule="evenodd" fill="#322012" cx="142.6" cy="62.9" r="2.9"/>
<circle fill-rule="evenodd" clip-rule="evenodd" fill="#322012" cx="178.4" cy="63.7" r="3.1"/>
<circle fill-rule="evenodd" clip-rule="evenodd" cx="175.2" cy="88.5" r="9.3"/>
<circle fill-rule="evenodd" clip-rule="evenodd" fill="#322012" cx="176.1" cy="89.5" r="7.4"/>
<path fill-rule="evenodd" clip-rule="evenodd" fill="#B03F2F" d="M153.3,59.7c0,0,10.2,13.2,9.2,14.3c-1,1.1-6.2,1.7-9.2-1.2
	S153.3,59.7,153.3,59.7z"/>
<path fill-rule="evenodd" clip-rule="evenodd" fill="#FFFFFF" d="M175.2,56.2c3.8-1.3,11.8,5.5,3.8-1.3"/>
<path fill-rule="evenodd" clip-rule="evenodd" fill="#FFFFFF" d="M141.2,54.2c3.8-1.3,11.8,5.5,3.8-1.3"/>
<path fill="#B93C2A" d="M209,90.2c0,0,19.8-12.6,20.8-19.9l4.9,2.5l-23.9,22.3"/>
<path fill="#B93C2A" d="M134.2,99.1c0,0-10.5,34.4-21.7,22.6c-6.6-7-6.7-7.4-6.7-7.4l-3.7,4.7c0,0,9.4,10.9,14.1,10.3
	s11.8-2.9,17.8-18.6"/>
<path fill="#F09A33" d="M107.5,116.5c0-1.3-1.4-2.7-2.5-2.7H93.5c-1.1,0-2,1.4-2,2.7v0.1c0,1.3,0.9,2.3,2,2.3H105
	C106.1,118.9,107.5,117.9,107.5,116.5L107.5,116.5z"/>
<path fill="#351516" d="M93.5,116.1c0-0.7-0.6-1.3-1.3-1.3H7.8c-0.7,0-1.3,0.6-1.3,1.3v0.5c0,0.7,0.6,1.3,1.3,1.3h84.5
	c0.7,0,1.3-0.6,1.3-1.3V116.1z"/>
<path fill="#351516" d="M45.5,119.9c0,0.6-0.4,1-1,1l0,0c-0.6,0-1-0.4-1-1v-2c0-0.6,0.4-1,1-1l0,0c0.6,0,1,0.4,1,1V119.9z"/>
<path fill="#351516" d="M74.5,119.9c0,0.6-0.4,1-1,1l0,0c-0.6,0-1-0.4-1-1v-2c0-0.6,0.4-1,1-1l0,0c0.6,0,1,0.4,1,1V119.9z"/>
<path fill="#351516" d="M8.5,118.9c0,0.6-0.4,1-1,1l0,0c-0.6,0-1-0.4-1-1v-2c0-0.6,0.4-1,1-1l0,0c0.6,0,1,0.4,1,1V118.9z"/>
<path fill="#351516" d="M95.5,119.9c0,0.5-0.4,1-1,1h-4c-0.5,0-1-0.4-1-1v0c0-0.5,0.4-1,1-1h4C95.1,118.9,95.5,119.3,95.5,119.9
	L95.5,119.9z"/>
<path fill="#351516" d="M91.5,129.9c0,0.6-0.4,1-1,1l0,0c-0.6,0-1-0.4-1-1v-9c0-0.6,0.4-1,1-1l0,0c0.6,0,1,0.4,1,1V129.9z"/>
<path fill="#351516" d="M95.5,129.9c0,0.5-0.4,1-1,1h-4c-0.5,0-1-0.4-1-1v0c0-0.5,0.4-1,1-1h4C95.1,128.9,95.5,129.3,95.5,129.9
	L95.5,129.9z"/>
<path fill="#351516" d="M88.5,126.2c0-2.4-1.9-4.3-4.3-4.3h-8.4c-2.4,0-4.3,1.9-4.3,4.3v0.4c0,2.4,1.9,4.3,4.3,4.3h8.4
	c2.4,0,4.3-1.9,4.3-4.3V126.2z"/>
<path fill="#B73C2D" d="M75.5,121.9v9c0,0-1.1,0.1-2.8-1.4s-1.2-3.3-1.2-3.3s0.1-1.7,0.8-2.5s0.9-1.3,2.1-1.6"/>
</svg>
