<?xml version="1.0" encoding="utf-8"?>
<!-- Generator: Adobe Illustrator 16.0.0, SVG Export Plug-In . SVG Version: 6.00 Build 0)  -->
<!DOCTYPE svg PUBLIC "-//W3C//DTD SVG 1.1//EN" "http://www.w3.org/Graphics/SVG/1.1/DTD/svg11.dtd">
<svg version="1.1" xmlns="http://www.w3.org/2000/svg" xmlns:xlink="http://www.w3.org/1999/xlink" x="0px" y="0px" width="1920px"
	 height="244.2px" viewBox="0 0 1920 244.2" enable-background="new 0 0 1920 244.2" xml:space="preserve">
<g id="Layer_1" display="none">
	<polygon display="inline" fill="#3C4833" points="214.1,78.5 193.3,39.3 173.3,78.5 178.8,78.5 167.3,102.3 156.7,85.7 160.5,83.2 
		144.3,58 128.6,83.6 132.4,84 125.2,95.1 114.5,83.2 95.8,105.7 88.2,96.8 93.3,95.9 73.3,70.4 52.8,95.9 58.4,95.9 50.3,105.7 
		23.5,67 3.5,92.9 -6.7,75.5 -18.6,99.3 -15.7,101.5 -21.2,107.8 -32.3,90.8 -27.1,90.4 -45.4,63.6 -66.3,87.4 -62.5,89.5 
		-68.4,98.5 -87.6,75.9 -99.1,87 -106.7,78 -102.5,73.6 -119.9,49.1 -129.7,66.6 -145.9,44.9 -162,69.5 -159.9,71.2 -166.7,81 
		-176.5,69.5 -195.6,92.9 -201.2,83.6 -198.6,81.9 -218.2,58 -237.8,84 -233.5,84.4 -239.9,91.7 -265.9,53.8 -285,79.7 
		-292.2,190.4 224.3,207.8 	"/>
	<polygon display="inline" fill="#3C4833" points="210.7,78.5 231.5,39.3 251.5,78.5 246,78.5 257.5,102.3 268.1,85.7 264.3,83.2 
		280.5,58 296.2,83.6 292.4,84 299.6,95.1 310.2,83.2 329,105.7 336.6,96.8 331.5,95.9 351.5,70.4 371.9,95.9 366.4,95.9 
		374.5,105.7 401.3,67 421.3,92.9 431.5,75.5 443.4,99.3 440.5,101.5 446,107.8 457,90.8 451.9,90.4 470.2,63.6 491.1,87.4 
		487.3,89.5 493.2,98.5 512.4,75.9 523.9,87 531.5,78 527.3,73.6 544.7,49.1 554.5,66.6 570.7,44.9 586.8,69.5 584.7,71.2 591.5,81 
		601.3,69.5 620.4,92.9 626,83.6 623.4,81.9 643,58 662.6,84 658.3,84.4 664.7,91.7 690.7,53.8 709.8,79.7 717,190.4 200.5,207.8 	
		"/>
	<polygon display="inline" fill="#3C4833" points="1209,78.5 1188.1,39.3 1168.1,78.5 1173.7,78.5 1162.2,102.3 1151.5,85.7 
		1155.4,83.2 1139.2,58 1123.4,83.6 1127.3,84 1120,95.1 1109.4,83.2 1090.7,105.7 1083,96.8 1088.1,95.9 1068.1,70.4 1047.7,95.9 
		1053.2,95.9 1045.2,105.7 1018.3,67 998.3,92.9 988.1,75.5 976.2,99.3 979.2,101.5 973.7,107.8 962.6,90.8 967.7,90.4 949.4,63.6 
		928.6,87.4 932.4,89.5 926.4,98.5 907.3,75.9 895.8,87 888.1,78 892.4,73.6 874.9,49.1 865.2,66.6 849,44.9 832.8,69.5 834.9,71.2 
		828.1,81 818.4,69.5 799.2,92.9 793.7,83.6 796.2,81.9 776.7,58 757.1,84 761.3,84.4 755,91.7 729,53.8 709.8,79.7 702.6,190.4 
		1219.2,207.8 	"/>
	<polygon display="inline" fill="#3C4833" points="1202,78.5 1222.9,39.3 1242.9,78.5 1237.4,78.5 1248.9,102.3 1259.5,85.7 
		1255.7,83.2 1271.8,58 1287.6,83.6 1283.7,84 1291,95.1 1301.6,83.2 1320.3,105.7 1328,96.8 1322.9,95.9 1342.9,70.4 1363.3,95.9 
		1357.8,95.9 1365.9,105.7 1392.7,67 1412.7,92.9 1422.9,75.5 1434.8,99.3 1431.8,101.5 1437.4,107.8 1448.4,90.8 1443.3,90.4 
		1461.6,63.6 1482.5,87.4 1478.6,89.5 1484.6,98.5 1503.7,75.9 1515.2,87 1522.9,78 1518.6,73.6 1536.1,49.1 1545.9,66.6 1562,44.9 
		1578.2,69.5 1576.1,71.2 1582.9,81 1592.7,69.5 1611.8,92.9 1617.3,83.6 1614.8,81.9 1634.4,58 1653.9,84 1649.7,84.4 1656.1,91.7 
		1682,53.8 1701.2,79.7 1708.4,190.4 1191.8,207.8 	"/>
	<polygon display="inline" fill="#3C4833" points="2200.3,78.5 2179.5,39.3 2159.5,78.5 2165,78.5 2153.5,102.3 2142.9,85.7 
		2146.7,83.2 2130.6,58 2114.8,83.6 2118.6,84 2111.4,95.1 2100.8,83.2 2082,105.7 2074.4,96.8 2079.5,95.9 2059.5,70.4 
		2039.1,95.9 2044.6,95.9 2036.5,105.7 2009.7,67 1989.7,92.9 1979.5,75.5 1967.6,99.3 1970.6,101.5 1965,107.8 1954,90.8 
		1959.1,90.4 1940.8,63.6 1919.9,87.4 1923.8,89.5 1917.8,98.5 1898.7,75.9 1887.2,87 1879.5,78 1883.8,73.6 1866.3,49.1 
		1856.5,66.6 1840.4,44.9 1824.2,69.5 1826.3,71.2 1819.5,81 1809.7,69.5 1790.6,92.9 1785,83.6 1787.6,81.9 1768,58 1748.4,84 
		1752.7,84.4 1746.3,91.7 1720.4,53.8 1701.2,79.7 1694,190.4 2210.6,207.8 	"/>
</g>
<g id="Layer_2">
	<polygon fill="#4A5A3E" points="396,4.6 378.3,30.4 384.2,33 378.1,41 366,22.5 345.3,50 350.8,52.6 342.6,62.3 330.8,50.2 
		317,66.7 308.7,48.3 311.7,45.7 294.6,11.9 276.4,44.1 280.6,46.2 272.3,66.1 259.7,49 247.7,63.7 250.2,65.9 244.6,71.8 
		238.7,64.9 226.6,77.9 221.6,72.3 224.2,71.5 211.1,55.6 196.1,72 199.9,74.2 192.5,89.5 184.4,83.8 171.9,99 166.9,88.3 
		169.5,86.6 158.7,65.7 147,86.8 149.5,88.1 143.4,98.7 138.8,89.7 138.9,87.6 131.8,76.8 121.8,89.5 121.8,90.8 121.7,96.7 
		114.2,89.4 104.7,101.2 100.9,95.2 89.1,82.3 80.9,93.7 83,96.3 78.7,100.9 64.1,79.9 54.9,94.7 49.5,85.2 41.3,100.5 32.9,91.4 
		36.3,90.2 25.8,76 14.6,89.5 17.1,91.2 14.5,96.7 3.2,84.3 -2.4,89.3 -6.6,84.1 -3.6,82.5 -13.3,69.6 -20.2,79.3 -28.1,66.4 
		-38.1,81.2 -36,83 -38.2,88 -44.9,79.9 -54.4,93 -58.6,86.5 -67.4,72.8 -77.7,86.3 -77.7,87.6 -77.8,90.5 -92.9,70.8 -103.2,84.3 
		-109.9,76.1 -119.1,90.5 -123.2,82.4 -121.1,81.1 -132.8,67.4 -145.3,82.9 -142.4,84.3 -147.5,88.5 -155,75.2 -161.5,81.5 
		-166.5,74.6 -164,73.8 -172.3,61.4 -177.1,69 -178.5,184.7 393.5,222.4 	"/>
	<polygon fill="#4A5A3E" points="394.2,13.1 411.3,39.2 405.4,41.7 411.2,49.9 423.8,31.7 443.9,59.6 438.3,62.1 446.3,72 
		458.3,60.2 471.8,77 480.5,58.8 477.5,56.2 495.4,22.8 512.9,55.3 508.6,57.4 516.4,77.5 529.4,60.6 541.1,75.7 538.6,77.8 
		544,83.8 550.1,77 561.8,90.4 567,84.9 564.4,84 577.8,68.4 592.5,85.2 588.7,87.3 595.7,102.7 603.9,97.2 616,112.7 621.3,102.1 
		618.7,100.4 630,79.7 641.3,101.1 638.7,102.3 644.5,113 649.3,104.2 649.3,102 656.7,91.5 666.3,104.4 666.3,105.6 666.2,111.6 
		674,104.4 683.2,116.5 687.1,110.6 699.2,97.9 707.1,109.5 705,112 709.2,116.8 724.3,96.1 733.1,111.1 738.7,101.8 746.6,117.2 
		755.2,108.4 751.8,107.1 762.6,93.1 773.5,106.9 771,108.6 773.5,114.1 785.1,101.9 790.6,107.1 794.9,102 791.9,100.3 801.9,87.6 
		808.5,97.5 816.8,84.8 826.4,99.8 824.2,101.5 826.3,106.7 833.2,98.6 842.4,111.9 846.7,105.6 855.8,92.1 865.9,105.8 
		865.9,107.1 865.8,110.1 881.4,90.7 891.4,104.4 898.3,96.4 907.1,111 911.5,103 909.3,101.7 921.4,88.2 933.6,104.1 930.6,105.3 
		935.6,109.6 943.5,96.5 949.8,103 954.9,96.2 952.4,95.4 961.1,83.1 965.6,90.8 964.3,206.6 391.7,230.9 	"/>
	<polygon fill="#4A5A3E" points="1528.2,26.4 1510.4,52.1 1516.3,54.7 1510.3,62.7 1498.2,44.3 1477.4,71.7 1482.9,74.3 1474.7,84 
		1462.9,72 1449.1,88.4 1440.8,70 1443.8,67.5 1426.8,33.7 1408.5,65.8 1412.8,68 1404.5,87.9 1391.9,70.7 1379.8,85.5 1382.3,87.6 
		1376.7,93.5 1370.9,86.6 1358.8,99.7 1353.7,94.1 1356.3,93.3 1343.3,77.4 1328.2,93.8 1332,96 1324.6,111.2 1316.6,105.6 
		1304.1,120.8 1299.1,110.1 1301.7,108.4 1290.8,87.4 1279.1,108.5 1281.6,109.9 1275.6,120.4 1271,111.4 1271,109.3 1263.9,98.6 
		1254,111.2 1254,112.5 1253.9,118.5 1246.3,111.1 1236.8,122.9 1233,116.9 1221.3,104 1213.1,115.4 1215.2,118 1210.9,122.6 
		1196.2,101.6 1187.1,116.4 1181.7,107 1173.4,122.2 1165,113.2 1168.4,111.9 1158,97.8 1146.7,111.3 1149.3,113 1146.6,118.5 
		1135.3,106 1129.7,111.1 1125.5,105.9 1128.5,104.2 1118.9,91.4 1112,101.1 1104,88.2 1094.1,103 1096.2,104.7 1094,109.8 
		1087.3,101.6 1077.8,114.7 1073.6,108.3 1064.8,94.6 1054.4,108 1054.4,109.3 1054.4,112.3 1039.3,92.6 1028.9,106 1022.2,97.9 
		1013.1,112.2 1008.9,104.1 1011.1,102.9 999.3,89.1 986.8,104.7 989.8,106 984.6,110.2 977.1,96.9 970.7,103.2 965.6,96.4 
		968.2,95.5 959.8,83.1 955.1,90.7 953.7,206.4 1525.6,244.2 	"/>
	<polygon fill="#4A5A3E" points="1526.2,26.4 1543.3,52.5 1537.3,55 1543.2,63.1 1555.7,45 1575.8,72.9 1570.3,75.4 1578.2,85.3 
		1590.3,73.5 1603.7,90.2 1612.4,72 1609.5,69.5 1627.3,36 1644.8,68.6 1640.5,70.7 1648.4,90.8 1661.4,73.9 1673.1,88.9 1670.5,91 
		1676,97 1682,90.3 1693.8,103.6 1698.9,98.2 1696.4,97.3 1709.8,81.7 1724.5,98.5 1720.6,100.5 1727.7,115.9 1735.8,110.5 
		1748,126 1753.2,115.4 1750.7,113.7 1762,92.9 1773.2,114.4 1770.7,115.6 1776.5,126.3 1781.3,117.4 1781.3,115.3 1788.7,104.7 
		1798.3,117.6 1798.3,118.9 1798.2,124.9 1805.9,117.7 1815.2,129.7 1819.1,123.8 1831.1,111.2 1839.1,122.8 1836.9,125.3 
		1841.1,130 1856.3,109.4 1865,124.4 1870.7,115.1 1878.6,130.5 1887.2,121.6 1883.8,120.3 1894.6,106.4 1905.5,120.2 1902.9,121.8 
		1905.4,127.4 1917,115.2 1922.5,120.4 1926.8,115.3 1923.9,113.6 1933.8,100.9 1940.5,110.8 1948.7,98.1 1958.3,113.1 
		1956.2,114.8 1958.3,119.9 1965.2,111.9 1974.4,125.2 1978.7,118.9 1987.8,105.4 1997.9,119.1 1997.8,120.4 1997.8,123.4 
		2013.3,104 2023.4,117.7 2030.3,109.7 2039.1,124.3 2043.4,116.2 2041.3,114.9 2053.4,101.5 2065.5,117.3 2062.5,118.6 
		2067.6,122.9 2075.4,109.8 2081.7,116.3 2086.9,109.5 2084.4,108.6 2093,96.4 2097.6,104.1 2096.2,219.8 1523.6,244.2 	"/>
</g>
</svg>
