<?xml version="1.0" encoding="utf-8"?>
<!-- Generator: Adobe Illustrator 16.0.0, SVG Export Plug-In . SVG Version: 6.00 Build 0)  -->
<!DOCTYPE svg PUBLIC "-//W3C//DTD SVG 1.1//EN" "http://www.w3.org/Graphics/SVG/1.1/DTD/svg11.dtd">
<svg version="1.1" id="Layer_1" xmlns="http://www.w3.org/2000/svg" xmlns:xlink="http://www.w3.org/1999/xlink" x="0px" y="0px"
	 width="334px" height="358px" viewBox="0 0 334 358" enable-background="new 0 0 334 358" xml:space="preserve">
<polygon fill="#9CB365" points="297,353 7,353 7,109 297,180 "/>
<rect x="7" y="230" fill="#D65329" width="290" height="3"/>
<rect x="7" y="216" fill="#D65329" width="290" height="3"/>
<rect x="7" y="201" fill="#D65329" width="290" height="3"/>
<rect x="7" y="258" fill="#D65329" width="290" height="3"/>
<rect x="7" y="244" fill="#D65329" width="290" height="3"/>
<polygon fill="#636019" points="330,342 297,353 297,180 330,169 "/>
<polyline fill="#525252" points="330,169 297,180 7,109 49.333,93.667 "/>
<rect x="217" y="203" fill="#D65329" width="66" height="150"/>
<rect x="51" y="200" fill="#D65329" width="66" height="66"/>
<rect x="58" y="206" fill="#323433" width="24" height="25"/>
<rect x="87" y="206" fill="#323433" width="24" height="25"/>
<rect x="58" y="236" fill="#323433" width="24" height="25"/>
<rect x="87" y="236" fill="#323433" width="24" height="25"/>
<path fill="#94AAB8" d="M175,140c0,0,10,6.5,14,4.5s0-62.5,0-62.5h-14"/>
<rect x="169" y="74" fill="#171819" width="26" height="11"/>
<path fill="#BCC5CC" d="M172.5,64.5c0,0-1-16.5,5.5-28s6-42,6.5-11.5"/>
<path fill="#BCC5CC" d="M189.5,58.5c0,0-1-16.5,5.5-28s6-42,6.5-11.5"/>
<rect x="7" y="341" fill="#D65329" width="290" height="3"/>
<rect x="7" y="327" fill="#D65329" width="290" height="3"/>
<rect x="7" y="312" fill="#D65329" width="290" height="3"/>
<rect x="7" y="298" fill="#D65329" width="290" height="3"/>
<rect x="7" y="284" fill="#D65329" width="290" height="3"/>
<rect x="7" y="270" fill="#D65329" width="290" height="3"/>
<rect x="7" y="187" fill="#D65329" width="290" height="3"/>
<polygon fill="#D65329" points="284.746,177 7,177 7,174 272.493,174 "/>
<polygon fill="#D65329" points="227.563,163 7,163 7,160 215.31,160 "/>
<polygon fill="#D65329" points="162.211,147 7,147 7,144 149.958,144 "/>
<polygon fill="#D65329" points="104.295,132.82 7,133 7,130 92.774,130 "/>
<polygon fill="#D65329" points="48.17,119 7,119 7,116 35.5,116 "/>
</svg>
